HIERARCHY
ROOT ui
{
	 OFFSET 0 0 0
	 CHANNELS 3 XPosition YPosition Z Position
	 EndSite
	 {
	 OFFSET 0 -1 0
	 }
}
ROOT li
{
	 OFFSET 0 0 0
	 CHANNELS 3 XPosition YPosition Z Position
	 EndSite
	 {
	 OFFSET 0 -1 0
	 }
}
ROOT ul
{
	 OFFSET 0 0 0
	 CHANNELS 3 XPosition YPosition Z Position
	 EndSite
	 {
	 OFFSET 0 -1 0
	 }
}
ROOT ll
{
	 OFFSET 0 0 0
	 CHANNELS 3 XPosition YPosition Z Position
	 EndSite
	 {
	 OFFSET 0 -1 0
	 }
}
ROOT tt
{
	 OFFSET 0 0 0
	 CHANNELS 3 XPosition YPosition Z Position
	 EndSite
	 {
	 OFFSET 0 -1 0
	 }
}
ROOT tb
{
	 OFFSET 0 0 0
	 CHANNELS 3 XPosition YPosition Z Position
	 EndSite
	 {
	 OFFSET 0 -1 0
	 }
}
ROOT td
{
	 OFFSET 0 0 0
	 CHANNELS 3 XPosition YPosition Z Position
	 EndSite
	 {
	 OFFSET 0 -1 0
	 }
}
ROOT v
{
	 OFFSET 0 0 0
	 CHANNELS 3 XPosition YPosition Z Position
	 EndSite
	 {
	 OFFSET 0 -1 0
	 }
}
ROOT bn
{
	 OFFSET 0 0 0
	 CHANNELS 3 XPosition YPosition Z Position
	 EndSite
	 {
	 OFFSET 0 -1 0
	 }
}
MOTION
Frames: 10
Frame Time: 0.002
-0.03596640396118164	0.003921900987625122	0		0.4175430908203125	-2.3918916015625	0		-0.9025460815429688	0.21825740051269532	0		-0.6483073120117188	-2.616326171875	0		2.0352437744140626	-0.30331341552734375	0		3.48163232421875	0.19287588500976563	0		4.79129833984375	0.10124221801757813	0		5.95575341796875	0.42206204223632815	0		0.04145333480834961	6.02546435546875	0		
-0.03622914505004883	0.004576018810272217	0		0.42411514282226564	-2.4013515625	0		-0.973733154296875	0.22408279418945312	0		-0.6855311279296875	-2.613061767578125	0		2.0349810791015623	-0.3026585998535156	0		3.471057373046875	0.17469888305664064	0		4.78592041015625	0.09498149108886719	0		5.9603408203125	0.41363690185546875	0		0.041188526153564456	6.02611865234375	0		
0.02940825653076172	-0.0018439860343933106	0		0.4258952331542969	-2.3987158203125	0		-0.8979982299804687	0.22349615478515625	0		-0.6857836303710938	-2.6123935546875	0		2.034726806640625	-0.30198828125	0		3.4820322265625	0.18918684387207033	0		4.785666015625	0.09565398406982421	0		5.9642177734375	0.42224319458007814	0		0.04191257858276367	6.02577099609375	0		
0.01624231147766113	0.004050427913665771	0		0.42564791870117186	-2.39803466796875	0		-0.9742384033203125	0.22543002319335936	0		-0.6839813842773438	-2.608747314453125	0		2.0344769287109377	-0.3013052978515625	0		3.467239013671875	0.15710719299316406	0		4.777185546875	0.08247431945800782	0		5.963966796875	0.4229310302734375	0		0.0075604901313781735	6.021013671875	0		
0.025857717514038085	-0.003424485921859741	0		0.448281982421875	-2.4047236328125	0		-0.903565673828125	0.22094613647460937	0		-0.688310302734375	-2.61299267578125	0		2.0260787353515624	-0.30947967529296877	0		3.491099853515625	0.16440480041503908	0		4.77693408203125	0.08317113494873046	0		5.95958349609375	0.4156968994140625	0		0.04237723541259766	6.0261240234375	0		
-0.027396402359008788	-0.0018555200099945068	0		0.4210621337890625	-2.401583251953125	0		-0.9788172607421874	0.22287631225585938	0		-0.6926318969726563	-2.616233154296875	0		2.0258179931640625	-0.3087813720703125	0		3.477641845703125	0.1533222198486328	0		4.77744140625	0.0698603515625	0		5.9593212890625	0.416403076171875	0		0.007026091098785401	6.02239697265625	0		
0.025313058853149415	-0.0020336709022521974	0		0.41875177001953123	-2.4028525390625	0		-0.8981946411132813	0.2172345733642578	0		-0.6929089965820312	-2.615538330078125	0		2.0273701171875	-0.31811175537109376	0		3.45826171875	0.1483412322998047	0		4.777158203125	0.07056812286376953	0		5.94590673828125	0.4093292236328125	0		0.04180622100830078	6.02751513671875	0		
-0.050059944152832034	-0.004099637985229492	0		0.41126068115234377	-2.413038330078125	0		-0.969436767578125	0.22309896850585936	0		-0.689153564453125	-2.610910888671875	0		2.0342012939453125	-0.30852676391601563	0		3.47649609375	0.12173711395263671	0		4.7775927734375	0.05626297760009766	0		5.95457080078125	0.4088934326171875	0		0.024524112701416016	6.0314912109375	0		
0.0366656494140625	0.0011581430435180665	0		0.45898272705078125	-2.408135498046875	0		-0.8948092651367188	0.22255258178710938	0		-0.6874740600585938	-2.60825244140625	0		2.0338408203125	-0.3078265075683594	0		3.5004443359375	0.14104348754882812	0		4.78619677734375	0.054823768615722655	0		5.9542080078125	0.40960614013671875	0		0.0420584716796875	6.02688916015625	0		
-0.055769004821777345	0.0013657159805297852	0		0.417681640625	-2.4007685546875	0		-0.9043549194335937	0.21538890075683595	0		-0.654982421875	-2.6141083984375	0		2.0231981201171876	-0.3209624938964844	0		3.4675390625	0.11227772521972657	0		4.76758740234375	0.043829246520996096	0		5.940662109375	0.40253277587890623	0		0.007545038223266602	6.023140625	0		
